<?xml version="1.0" encoding="utf-8"?>
<!-- Generator: Adobe Illustrator 20.0.0, SVG Export Plug-In . SVG Version: 6.00 Build 0)  -->
<svg version="1.1" id="Layer_1" xmlns="http://www.w3.org/2000/svg" xmlns:xlink="http://www.w3.org/1999/xlink" x="0px" y="0px"
	 viewBox="0 0 87.8 85.6" style="enable-background:new 0 0 87.8 85.6;" xml:space="preserve">
<style type="text/css">
	.st0{fill:#80918E;}
	.st1{fill:#FFFFFF;}
	.st2{fill:#56CAF4;}
	.st3{fill:#F5895B;}
	.st4{fill:none;stroke:#F5895B;stroke-miterlimit:10;}
</style>
<path class="st0" d="M80.7,36.4c1.4,17.3-8.2,34.3-28.7,48.1c2.9-7.7,2.9-15.1-11.7-15.3C13.9,68.6,0,54.5,0,36.4
	C0,18.3,18.1,3.7,40.3,3.7C62.6,3.8,79.2,18.4,80.7,36.4z"/>
<g>
	<path class="st1" d="M86.2,34.1c1.4,17.3-8.2,34.3-28.7,48.1c2.9-7.7,2.9-15.1-11.7-15.3C19.4,66.3,5.5,52.2,5.5,34.2
		S23.6,1.5,45.9,1.5C68.1,1.4,84.7,16.1,86.2,34.1z"/>
	<path class="st2" d="M54.8,85.6l1.5-3.9c1.7-4.6,1.8-7.8,0.4-9.9c-1.6-2.3-5.3-3.5-10.9-3.7C33,67.8,22.3,64.3,14.9,58
		C7.9,51.9,4.2,43.7,4.2,34C4.2,15.3,22.9,0,46,0c22.2,0,40.2,14.6,41.7,33.9c1.5,18.2-8.9,35.7-29.3,49.3L54.8,85.6z M45.9,2.8
		c-21.5,0-39,14-39,31.3c0,8.8,3.3,16.3,9.7,21.8c6.8,6,17,9.2,29.3,9.5c6.7,0.2,11,1.8,13.1,4.8c1.8,2.5,1.7,5.7,1.1,8.5
		C77.4,66,86.1,50.3,84.8,34.2C83.4,16.3,66.7,2.8,45.9,2.8z"/>
</g>
<g>
	<path class="st3" d="M51.7,55.6c0,0-1.8-4.3,1.4-6.8c3.1-2.5,3.1-5.4,3.1-5.4l-2.7-2.9l3.2-2.2v-4.6h3.6c0,0,0.5-4.9-0.7-9.9
		c-2.4-9.9-16-15.4-25.5-6.5c-5.9,5.4-4.8,13.8,0.2,21.6c2.4,3.8,2.4,10.6,2.4,16.8L51.7,55.6L51.7,55.6z"/>
	<path class="st1" d="M54.3,26.7c0,1.1-0.9,2-1.9,2s-1.9-0.9-1.9-2s0.9-2,1.9-2C53.4,24.6,54.3,25.5,54.3,26.7z"/>
	<path class="st4" d="M65.5,33.8c2,2.7,2.9,6.1,2.4,9.6c-0.4,2-1.1,3.9-2.3,5.6"/>
	<path class="st4" d="M63,36c1.3,2,1.9,4.4,1.6,6.8c-0.3,1.5-0.8,2.9-1.6,4"/>
	<path class="st4" d="M60.3,38c0.9,1.2,1.2,2.8,1,4.4c-0.1,0.8-0.4,1.6-0.8,2.2"/>
</g>
</svg>
